HIERARCHY
ROOT Hips
{
	OFFSET 0.000000 0.000000 0.000000
	CHANNELS 6 Xposition Yposition Zposition Zrotation Yrotation Xrotation 
	JOINT LHipJoint
	{
		OFFSET 0.000000 0.000000 0.000000
		CHANNELS 3 Zrotation Yrotation Xrotation
		JOINT LeftUpLeg
		{
			OFFSET 1.363060 -1.794630 0.839290
			CHANNELS 3 Zrotation Yrotation Xrotation
			JOINT LeftLeg
			{
				OFFSET 2.448110 -6.726130 0.000000
				CHANNELS 3 Zrotation Yrotation Xrotation
				JOINT LeftFoot
				{
					OFFSET 2.562200 -7.039590 0.000000
					CHANNELS 3 Zrotation Yrotation Xrotation
					JOINT LeftToeBase
					{
						OFFSET 0.157640 -0.433110 2.322550
						CHANNELS 3 Zrotation Yrotation Xrotation
						End Site
						{
							OFFSET 0.000000 0.000000 0.000000
						}
					}
				}
			}
		}
	}
	JOINT RHipJoint
	{
		OFFSET 0.000000 0.000000 0.000000
		CHANNELS 3 Zrotation Yrotation Xrotation
		JOINT RightUpLeg
		{
			OFFSET -1.305520 -1.794630 0.839290
			CHANNELS 3 Zrotation Yrotation Xrotation
			JOINT RightLeg
			{
				OFFSET -2.542530 -6.985550 0.000000
				CHANNELS 3 Zrotation Yrotation Xrotation
				JOINT RightFoot
				{
					OFFSET -2.568260 -7.056230 0.000000
					CHANNELS 3 Zrotation Yrotation Xrotation
					JOINT RightToeBase
					{
						OFFSET -0.164730 -0.452590 2.363150
						CHANNELS 3 Zrotation Yrotation Xrotation
						End Site
						{
							OFFSET 0.000000 0.000000 0.000000
						}
					}
				}
			}
		}
	}
	JOINT LowerBack
	{
		OFFSET 0.000000 0.000000 0.000000
		CHANNELS 3 Zrotation Yrotation Xrotation
		JOINT Spine
		{
			OFFSET 0.028270 2.035590 -0.193380
			CHANNELS 3 Zrotation Yrotation Xrotation
			JOINT Spine1
			{
				OFFSET 0.056720 2.048850 -0.042750
				CHANNELS 3 Zrotation Yrotation Xrotation
				JOINT Neck
				{
					OFFSET 0.000000 0.000000 0.000000
					CHANNELS 3 Zrotation Yrotation Xrotation
					JOINT Neck1
					{
						OFFSET -0.054170 1.746240 0.172020
						CHANNELS 3 Zrotation Yrotation Xrotation
						JOINT Head
						{
							OFFSET 0.104070 1.761360 -0.123970
							CHANNELS 3 Zrotation Yrotation Xrotation
							End Site
							{
								OFFSET 0.000000 0.000000 0.000000
							}
						}
					}
				}
				JOINT LeftShoulder
				{
					OFFSET 0.000000 0.000000 0.000000
					CHANNELS 3 Zrotation Yrotation Xrotation
					JOINT LeftArm
					{
						OFFSET 3.362410 1.200890 -0.311210
						CHANNELS 3 Zrotation Yrotation Xrotation
						JOINT LeftForeArm
						{
							OFFSET 4.983000 -0.000000 -0.000000
							CHANNELS 3 Zrotation Yrotation Xrotation
							JOINT LeftHand
							{
								OFFSET 3.483560 -0.000000 -0.000000
								CHANNELS 3 Zrotation Yrotation Xrotation
								JOINT LeftFingerBase
								{
									OFFSET 0.000000 0.000000 0.000000
									CHANNELS 3 Zrotation Yrotation Xrotation
									JOINT LeftHandIndex1
									{
										OFFSET 0.715260 -0.000000 -0.000000
										CHANNELS 3 Zrotation Yrotation Xrotation
										End Site
										{
											OFFSET 0.000000 0.000000 0.000000
										}
									}
								}
								JOINT LThumb
								{
									OFFSET 0.000000 0.000000 0.000000
									CHANNELS 3 Zrotation Yrotation Xrotation
									End Site
									{
										OFFSET 0.000000 0.000000 0.000000
									}
								}
							}
						}
					}
				}
				JOINT RightShoulder
				{
					OFFSET 0.000000 0.000000 0.000000
					CHANNELS 3 Zrotation Yrotation Xrotation
					JOINT RightArm
					{
						OFFSET -3.136600 1.374050 -0.404650
						CHANNELS 3 Zrotation Yrotation Xrotation
						JOINT RightForeArm
						{
							OFFSET -5.241900 -0.000000 -0.000000
							CHANNELS 3 Zrotation Yrotation Xrotation
							JOINT RightHand
							{
								OFFSET -3.444170 -0.000000 -0.000000
								CHANNELS 3 Zrotation Yrotation Xrotation
								JOINT RightFingerBase
								{
									OFFSET 0.000000 0.000000 0.000000
									CHANNELS 3 Zrotation Yrotation Xrotation
									JOINT RightHandIndex1
									{
										OFFSET -0.622530 -0.000000 -0.000000
										CHANNELS 3 Zrotation Yrotation Xrotation
										End Site
										{
											OFFSET 0.000000 0.000000 0.000000
										}
									}
								}
								JOINT RThumb
								{
									OFFSET 0.000000 0.000000 0.000000
									CHANNELS 3 Zrotation Yrotation Xrotation
									End Site
									{
										OFFSET 0.000000 0.000000 0.000000
									}
								}
							}
						}
					}
				}
			}
		}
	}
}
MOTION
Frames: 6
Frame Time: 0.008333
0.076022 17.886472 -9.563219 -4.450588 -0.090781 9.681231 -2.568954 0.243633 1.070097 -7.408299 -3.428441 -15.785922 1.126445 9.584272 28.170452 1.067622 -2.572426 -9.216155 0.228900 -3.079300 -8.499700 4.857522 1.231410 0.439031 15.756654 6.418125 -15.453639 -2.143678 -9.990637 27.970523 -0.109182 -2.216519 -10.472419 -0.013300 -0.745900 2.050000 -2.303709 -0.668443 -8.961129 5.241579 -0.398154 -0.994739 4.968412 -0.282137 3.673998 -1.109836 -2.961410 -17.699844 0.542391 -2.724874 31.067109 -1.729400 -0.795500 16.566900 0.548978 5.308288 -1.160783 -91.663087 -2.834214 31.950082 11.521902 -20.668974 -1.473522 1.165944 -0.263121 2.844107 35.826227 16.349672 11.332600 -7.125000 0.000000 0.000000 6.814300 50.075900 0.856100 0.039557 -3.789376 -1.221286 85.331669 -0.156675 26.729195 -13.847489 24.208947 -2.621011 0.037544 0.214656 -7.444334 -19.795682 9.006667 -3.156600 7.125000 0.000000 0.000000 5.064600 -20.668900 2.962400 
0.075422 17.883571 -9.562919 -4.620416 -0.131402 9.618988 -2.553714 0.249737 1.076739 -7.268047 -3.269208 -15.844034 1.142101 9.598511 28.215451 1.065749 -2.572086 -9.155468 0.186400 -2.780400 -7.668000 4.856464 1.228963 0.447748 15.952133 6.359615 -15.420248 -2.145019 -9.982733 27.950830 -0.134868 -1.979793 -10.198258 -0.030100 -1.119300 3.077100 -2.108223 -0.604948 -9.033591 5.248773 -0.338688 -0.884299 4.866467 -0.249599 3.750305 -1.090502 -2.962741 -17.662370 0.555899 -2.740320 31.020520 -1.731300 -0.796700 16.537800 0.554348 5.310204 -1.159782 -91.613797 -2.964904 32.127786 11.490516 -20.630063 -1.505059 1.177461 -0.111392 2.705627 31.599601 19.633225 11.333600 -7.125000 0.000000 0.000000 2.093900 52.806300 0.402300 0.039968 -3.792477 -1.227438 85.400662 -0.076486 26.590871 -13.877812 24.260084 -2.634740 0.040581 0.211981 -7.473164 -19.650222 9.014923 -3.136100 7.125000 0.000000 0.000000 5.167300 -20.665400 3.023400 
0.075722 17.884971 -9.564219 -4.658034 -0.143817 9.622716 -2.549985 0.246706 1.072515 -7.239908 -3.216815 -15.902456 1.153681 9.618130 28.271006 1.061644 -2.531115 -9.200838 0.207700 -2.934000 -8.095100 4.856470 1.228237 0.449488 15.992228 6.363367 -15.397045 -2.132605 -9.958689 27.876325 -0.133255 -1.967235 -10.124561 -0.033500 -1.181900 3.249500 -2.033396 -0.572180 -9.057961 5.223300 -0.303831 -0.889034 4.822084 -0.230372 3.764845 -1.010072 -2.938256 -17.666251 0.450998 -2.705830 31.099090 -1.785500 -0.784300 16.580300 0.558982 5.308683 -1.152832 -91.598103 -2.985029 32.171803 11.503003 -20.649806 -1.542071 1.170663 0.060809 2.624552 26.820634 22.802681 10.595400 -7.125000 0.000000 0.000000 -3.657900 55.075500 -0.905900 0.041296 -3.799093 -1.229825 85.428187 -0.031551 26.536342 -13.874419 24.257976 -2.635147 0.041619 0.210399 -7.509370 -19.550077 8.990953 -3.111400 7.125000 0.000000 0.000000 5.238700 -20.694700 3.062000 
0.076523 17.885371 -9.565919 -4.745951 -0.144984 9.624824 -2.540820 0.248085 1.068946 -7.147311 -3.243777 -15.922074 1.169326 9.640719 28.336294 1.074161 -2.580998 -9.227538 0.196400 -2.853800 -7.872000 4.859922 1.228319 0.450616 16.082193 6.377337 -15.363539 -2.120202 -9.933513 27.799403 -0.133685 -1.950190 -10.074960 -0.041800 -1.319100 3.627200 -1.924429 -0.550375 -9.059652 5.256843 -0.282522 -0.899372 4.772654 -0.218497 3.764147 -1.024017 -2.935913 -17.715486 0.419802 -2.679041 31.235643 -1.793600 -0.774900 16.663100 0.559862 5.314996 -1.146993 -91.630767 -2.981860 32.111068 11.532341 -20.682501 -1.569024 1.142054 0.246415 2.687891 21.590495 25.787184 9.183600 -7.125000 0.000000 0.000000 -10.265700 56.852000 -3.003500 0.038987 -3.797212 -1.229762 85.412778 -0.005102 26.557533 -13.899503 24.295033 -2.644458 0.040370 0.210531 -7.597379 -19.597186 8.979772 -3.115300 7.125000 0.000000 0.000000 5.205400 -20.703900 3.041300 
0.079023 17.888973 -9.570421 -4.890452 -0.177942 9.659849 -2.527485 0.249993 1.064350 -7.009905 -3.264933 -15.958454 1.180389 9.654790 28.372714 1.085301 -2.629292 -9.222828 0.168000 -2.640400 -7.279300 4.865095 1.229729 0.446549 16.214289 6.416414 -15.383115 -2.114678 -9.914098 27.750992 -0.140148 -1.882411 -9.983593 -0.053900 -1.497700 4.119300 -1.756171 -0.522634 -9.041549 5.330515 -0.255454 -0.931078 4.699425 -0.202860 3.744434 -1.055407 -2.933898 -17.764926 0.386769 -2.646569 31.348648 -1.799500 -0.766700 16.734300 0.558894 5.320064 -1.144158 -91.689501 -2.980861 32.066355 11.613512 -20.730787 -1.564216 1.012099 0.640880 2.752117 10.177449 31.236566 4.714800 -7.125000 0.000000 0.000000 -25.212400 59.128600 -9.061300 0.032581 -3.794664 -1.227866 85.382530 0.027515 26.545979 -13.897399 24.289709 -2.635109 0.047292 0.220626 -7.702164 -19.771954 9.594562 -3.361400 7.125000 0.000000 0.000000 5.077200 -20.055000 3.040100 
0.083225 17.893274 -9.575622 -4.938663 -0.271076 9.742621 -2.524095 0.243267 1.054396 -6.993056 -3.278083 -16.025261 1.182636 9.662866 28.389099 1.080453 -2.598558 -9.231521 0.149700 -2.492800 -6.869800 4.865668 1.234548 0.438216 16.219495 6.410377 -15.507513 -2.116493 -9.906134 27.744245 -0.156072 -1.754999 -9.884821 -0.056200 -1.529300 4.206500 -1.667915 -0.497223 -9.042725 5.361950 -0.224063 -0.999963 4.658441 -0.185847 3.723476 -1.083122 -2.929957 -17.793043 0.291212 -2.601328 31.414032 -1.831100 -0.764400 16.776300 0.558494 5.319062 -1.139373 -91.741057 -2.974882 32.074936 11.604455 -20.715134 -1.556987 1.015271 0.643409 2.581350 10.346605 31.343848 4.815500 -7.125000 0.000000 0.000000 -25.135800 59.264000 -9.114000 0.028369 -3.796430 -1.226317 85.334461 0.054341 26.553520 -13.841417 24.202585 -2.600591 0.060390 0.235737 -7.792303 -19.916514 10.595972 -3.743000 7.125000 0.000000 0.000000 4.974800 -19.003600 3.095400 
